<svg xmlns="http://www.w3.org/2000/svg" viewBox="0 0 64 64">
  <defs>
    <linearGradient id="g" x1="0%" x2="100%" y1="0%" y2="100%">
      <stop offset="0%" stop-color="#20d5dc" />
      <stop offset="100%" stop-color="#8ef4ef" />
    </linearGradient>
  </defs>
  <rect width="64" height="64" rx="18" fill="#071416" />
  <path
    d="M19 20h26v6c0 8.6-5.7 16.2-13 18.3-7.3-2.1-13-9.7-13-18.3v-6Zm4 6c0 6.1 3.8 11.2 9 13 5.2-1.8 9-6.9 9-13v-2H23v2Zm9 20c2.8 0 5 2.2 5 5h8v4H19v-4h8c0-2.8 2.2-5 5-5Z"
    fill="url(#g)"
  />
</svg>
